<svg preserveAspectRatio="none" width="100%" height="100%" overflow="visible" style="display: block;" viewBox="0 0 171 24" fill="none" xmlns="http://www.w3.org/2000/svg">
<g id="Frame 1707480952">
<path id="Vector" d="M0 24V0H16.3877V4.11915H5.33712V9.97447H15.6008V14.0596H5.33712V24H0ZM19.4369 24V0H24.774V24H19.4369ZM26.2392 24L36.3319 10.6553V13.0043L26.5129 0H32.7738L39.3425 9.15745H37.6319L44.2349 0H50.4957L40.6426 13.0043V10.6553L50.8037 24H44.5086L37.6319 14.5021H39.3767L32.4659 24H26.2392ZM61.6105 24V0H72.5584C75.2724 0 77.3706 0.64681 78.8535 1.94043C80.3358 3.21135 81.0773 4.99293 81.0773 7.28511C81.0773 8.78298 80.7351 10.0766 80.0509 11.166C79.3891 12.2326 78.4312 13.061 77.1771 13.6511C75.9454 14.2185 74.4625 14.5021 72.7295 14.5021L73.14 13.7532H74.5427C75.5231 13.7532 76.3902 14.0142 77.1428 14.5362C77.918 15.0581 78.5568 15.8185 79.0587 16.817L82.651 24H76.7665L73.0374 16.2723C72.7637 15.6142 72.3301 15.183 71.7373 14.9787C71.1669 14.7518 70.5057 14.6383 69.753 14.6383H66.9476V24H61.6105ZM66.9476 10.8255H71.6347C73.0256 10.8255 74.0862 10.5419 74.8164 9.97447C75.5461 9.40708 75.9112 8.56739 75.9112 7.45532C75.9112 6.34325 75.5461 5.5149 74.8164 4.97021C74.0862 4.40284 73.0256 4.11915 71.6347 4.11915H66.9476V10.8255ZM85.4906 24V0H102.255V4.11915H90.5883V9.73617H101.434V13.8894H90.5883V19.8809H102.255V24H85.4906ZM105.629 24V0H110.967V19.5404H121.846V24H105.629ZM121.492 24L132.576 0H136.99L148.211 24H142.806L139.898 17.3277L141.985 18.7915H127.65L129.771 17.3277L126.863 24H121.492ZM134.766 5.58298L130.353 16L129.429 14.7064H140.206L139.419 16L134.903 5.58298H134.766ZM146.436 24L156.528 10.6553V13.0043L146.709 0H152.97L159.539 9.15745H157.828L164.431 0H170.692L160.839 13.0043V10.6553L171 24H164.705L157.828 14.5021H159.573L152.662 24H146.436Z" fill="var(--fill-0, white)"/>
</g>
</svg>
