<svg preserveAspectRatio="none" width="100%" height="100%" overflow="visible" style="display: block;" viewBox="0 0 10 10" fill="none" xmlns="http://www.w3.org/2000/svg">
<g id="Frame">
<path id="Vector" d="M8.29063 3.91562L5.16563 7.04062C5.12168 7.08452 5.06211 7.10917 5 7.10917C4.93789 7.10917 4.87832 7.08452 4.83437 7.04062L1.70938 3.91562C1.66798 3.8712 1.64544 3.81243 1.64651 3.75171C1.64758 3.69099 1.67218 3.63306 1.71512 3.59012C1.75806 3.54718 1.81599 3.52258 1.87671 3.52151C1.93743 3.52044 1.9962 3.54297 2.04063 3.58437L5 6.54336L7.95937 3.58437C8.0038 3.54297 8.06257 3.52044 8.12329 3.52151C8.18401 3.52258 8.24194 3.54718 8.28488 3.59012C8.32782 3.63306 8.35242 3.69099 8.35349 3.75171C8.35456 3.81243 8.33203 3.8712 8.29063 3.91562Z" fill="var(--fill-0, black)"/>
</g>
</svg>
