<svg preserveAspectRatio="none" width="100%" height="100%" overflow="visible" style="display: block;" viewBox="0 0 14 14" fill="none" xmlns="http://www.w3.org/2000/svg">
<g id="Frame">
<path id="Vector" d="M12.1182 8.76641L9.53477 7.60867C9.41771 7.55852 9.29 7.53835 9.16319 7.55C9.03637 7.56165 8.91447 7.60475 8.80852 7.67539C8.79776 7.68229 8.78753 7.68997 8.77789 7.69836L7.42766 8.8468C7.41365 8.85444 7.39805 8.85871 7.38211 8.85928C7.36616 8.85985 7.3503 8.8567 7.33578 8.85008C6.46789 8.43117 5.56883 7.53758 5.14828 6.68172C5.14128 6.66742 5.13764 6.6517 5.13764 6.63578C5.13764 6.61986 5.14128 6.60414 5.14828 6.58984L6.30055 5.22266C6.30881 5.21254 6.31648 5.20195 6.32352 5.19094C6.39318 5.08457 6.43526 4.96253 6.44595 4.83583C6.45665 4.70914 6.43562 4.58177 6.38477 4.46523L5.23523 1.88617C5.16995 1.73393 5.05706 1.60696 4.91349 1.52433C4.76992 1.4417 4.60342 1.40786 4.43898 1.42789C3.72434 1.52184 3.06836 1.87279 2.59362 2.41516C2.11888 2.95753 1.85788 3.65421 1.85937 4.375C1.85937 8.65703 5.34297 12.1406 9.625 12.1406C10.3458 12.142 11.0424 11.881 11.5847 11.4062C12.1271 10.9315 12.478 10.2756 12.5721 9.56101C12.5921 9.39735 12.5587 9.2316 12.4769 9.08843C12.3952 8.94526 12.2693 8.83232 12.1182 8.76641ZM9.625 11.4844C5.705 11.4844 2.51562 8.295 2.51562 4.375C2.5138 3.81387 2.71633 3.27126 3.08538 2.84857C3.45444 2.42587 3.96476 2.152 4.52102 2.07813H4.53359C4.55563 2.07854 4.57703 2.0856 4.59499 2.09838C4.61294 2.11116 4.62662 2.12908 4.63422 2.14977L5.78812 4.72609C5.79471 4.74042 5.79811 4.75599 5.79811 4.77176C5.79811 4.78752 5.79471 4.8031 5.78812 4.81742L4.63367 6.18789C4.62506 6.19767 4.6172 6.20809 4.61016 6.21906C4.53792 6.32934 4.49538 6.45641 4.48666 6.58796C4.47794 6.7195 4.50334 6.85107 4.56039 6.96992C5.04547 7.96305 6.04625 8.95617 7.05031 9.44125C7.16986 9.49799 7.30207 9.52277 7.43405 9.51319C7.56602 9.5036 7.69327 9.45998 7.80336 9.38656C7.81375 9.37945 7.82414 9.3718 7.83398 9.36359L9.18367 8.21516C9.197 8.20799 9.21172 8.2038 9.22682 8.20285C9.24193 8.20191 9.25705 8.20424 9.27117 8.20969L11.8552 9.36742C11.8763 9.37641 11.894 9.39181 11.9059 9.41144C11.9178 9.43106 11.9232 9.45393 11.9213 9.4768C11.8478 10.0333 11.5742 10.544 11.1516 10.9135C10.729 11.2829 10.1863 11.4859 9.625 11.4844Z" fill="var(--fill-0, #212121)"/>
</g>
</svg>
