<svg preserveAspectRatio="none" width="100%" height="100%" overflow="visible" style="display: block;" viewBox="0 0 60 60" fill="none" xmlns="http://www.w3.org/2000/svg">
<g id="fi_5690573" clip-path="url(#clip0_0_6)">
<path id="Vector" d="M51.2622 51.2099C62.9762 39.496 62.9762 20.5039 51.2622 8.78994C39.5482 -2.92402 20.5562 -2.92402 8.84221 8.78994C-2.87175 20.5039 -2.87175 39.496 8.84221 51.2099C20.5562 62.9239 39.5482 62.9239 51.2622 51.2099Z" fill="var(--fill-0, white)"/>
<path id="Vector_2" fill-rule="evenodd" clip-rule="evenodd" d="M38.8343 28.0114L23.4991 19.3069C23.1445 19.1058 22.7424 18.9999 22.333 19C21.9237 19.0001 21.5216 19.106 21.167 19.3072C20.8125 19.5083 20.518 19.7977 20.3132 20.1461C20.1084 20.4946 20.0004 20.8899 20 21.2924V38.7033C19.9977 39.1062 20.1044 39.5026 20.3093 39.8516C20.5141 40.2007 20.8098 40.4898 21.1658 40.6895C21.5198 40.8928 21.9225 41 22.3325 41C22.7425 41 23.1451 40.8928 23.4991 40.6895L38.8343 31.984C39.1888 31.7826 39.4831 31.493 39.6877 31.1444C39.8923 30.7957 40 30.4003 40 29.9978C40 29.5953 39.8923 29.1999 39.6877 28.8512C39.4831 28.5026 39.1888 28.213 38.8343 28.0116V28.0114Z" fill="var(--fill-0, black)"/>
</g>
<defs>
<clipPath id="clip0_0_6">
<rect width="60" height="60" fill="white"/>
</clipPath>
</defs>
</svg>
