<svg preserveAspectRatio="none" width="100%" height="100%" overflow="visible" style="display: block;" viewBox="0 0 14 14" fill="none" xmlns="http://www.w3.org/2000/svg">
<g id="Group">
<path id="Vector" d="M0 0H14V14H0V0Z" fill="var(--fill-0, #D80027)"/>
<g id="Group_2">
<path id="Vector_2" d="M9.57031 4.97656L10.4727 6.23438L11.9492 5.74219L11.0469 7L11.9492 8.25781L10.4727 7.76562L9.57031 9.02344V7.46484L8.09375 7L9.57031 6.50781V4.97656Z" fill="var(--fill-0, #EEEEEE)"/>
<path id="Vector_3" d="M7.10937 10.1172C6.63804 10.1125 6.17391 10.0009 5.75191 9.79091C5.32991 9.58092 4.96103 9.27796 4.67302 8.90482C4.38501 8.53168 4.18537 8.09809 4.08912 7.63666C3.99287 7.17523 4.00253 6.69798 4.11735 6.24082C4.23217 5.78366 4.44917 5.35849 4.75203 4.9973C5.05489 4.63611 5.43572 4.34831 5.86586 4.15555C6.296 3.96278 6.76426 3.87008 7.2354 3.88441C7.70655 3.89874 8.1683 4.01973 8.58594 4.23828C8.0428 3.7092 7.35572 3.35201 6.61063 3.2114C5.86555 3.07079 5.09554 3.15301 4.39694 3.44776C3.69833 3.7425 3.10215 4.2367 2.68296 4.86853C2.26378 5.50036 2.0402 6.24176 2.0402 7C2.0402 7.75824 2.26378 8.49964 2.68296 9.13147C3.10215 9.7633 3.69833 10.2575 4.39694 10.5522C5.09554 10.847 5.86555 10.9292 6.61063 10.7886C7.35572 10.648 8.0428 10.2908 8.58594 9.76172C8.12109 10.0078 7.62891 10.1172 7.10937 10.1172Z" fill="var(--fill-0, #EEEEEE)"/>
</g>
</g>
</svg>
